<?xml version="1.0" encoding="UTF-8"?>
<svg width="20px" height="20px" viewBox="0 0 20 20" version="1.1" xmlns="http://www.w3.org/2000/svg" xmlns:xlink="http://www.w3.org/1999/xlink">
    <!-- Generator: Sketch 52.5 (67469) - http://www.bohemiancoding.com/sketch -->
    <title>ICON/20/叉号</title>
    <desc>Created with Sketch.</desc>
    <g id="ICON/20/叉号" stroke="none" stroke-width="1" fill="none" fill-rule="evenodd">
        <path d="M10,2 C14.4178571,2 18,5.58214286 18,10 C18,14.4178571 14.4178571,18 10,18 C5.58214286,18 2,14.4178571 2,10 C2,5.58214286 5.58214286,2 10,2 Z M11.4142136,10 L13.5355339,7.87867966 C13.9260582,7.48815536 13.9260582,6.85499039 13.5355339,6.46446609 C13.1450096,6.0739418 12.5118446,6.0739418 12.1213203,6.46446609 L10,8.58578644 L7.87867966,6.46446609 C7.48815536,6.0739418 6.85499039,6.0739418 6.46446609,6.46446609 C6.0739418,6.85499039 6.0739418,7.48815536 6.46446609,7.87867966 L8.58578644,10 L6.46446609,12.1213203 C6.0739418,12.5118446 6.0739418,13.1450096 6.46446609,13.5355339 C6.85499039,13.9260582 7.48815536,13.9260582 7.87867966,13.5355339 L10,11.4142136 L12.1213203,13.5355339 C12.5118446,13.9260582 13.1450096,13.9260582 13.5355339,13.5355339 C13.9260582,13.1450096 13.9260582,12.5118446 13.5355339,12.1213203 L11.4142136,10 Z" id="fill" fill="#F5222D" fill-rule="nonzero"></path>
    </g>
</svg>