<?xml version="1.0" encoding="UTF-8"?>
<svg width="20px" height="20px" viewBox="0 0 20 20" version="1.1" xmlns="http://www.w3.org/2000/svg" xmlns:xlink="http://www.w3.org/1999/xlink">
    <!-- Generator: Sketch 52.5 (67469) - http://www.bohemiancoding.com/sketch -->
    <title>ICON/状态/完成</title>
    <desc>Created with Sketch.</desc>
    <g id="ICON/状态/完成" stroke="none" stroke-width="1" fill="none" fill-rule="evenodd">
        <path d="M10,2 C14.4178571,2 18,5.58214286 18,10 C18,14.4178571 14.4178571,18 10,18 C5.58214286,18 2,14.4178571 2,10 C2,5.58214286 5.58214286,2 10,2 Z M13.1321131,6.3669818 L8.93679954,11.4975563 L6.81199022,9.30420478 C6.42771314,8.90753166 5.79462791,8.89748269 5.39795478,9.28175978 C5.00128166,9.66603686 4.99123269,10.2991221 5.37550978,10.6957952 L8.28175978,13.6957952 C8.69790021,14.1253595 9.39554208,14.0960132 9.77413691,13.6330182 L14.6803869,7.6330182 C15.0299932,7.20547419 14.9668122,6.57546939 14.5392682,6.22586309 C14.1117242,5.87625679 13.4817194,5.93943779 13.1321131,6.3669818 Z" id="fill" fill="#29C89B" fill-rule="nonzero"></path>
    </g>
</svg>